<svg width="87" height="173" viewBox="0 0 87 173" fill="none" xmlns="http://www.w3.org/2000/svg">
<path d="M86.5 84C86.5 108.216 82.0532 130.168 74.6084 146.084C67.1788 161.968 56.6769 172 44.5 172C32.33 172 21.4515 161.977 13.6455 146.093C5.8236 130.176 1 108.222 1 84C1 65.195 3.75723 48.2854 8.5332 34.624C13.306 20.9717 20.1113 10.5181 28.2432 4.68848C32.2595 1.80931 36.4811 2.31451 40.3145 4.48633C44.1238 6.6446 47.6036 10.4686 50.2881 14.3613C53.0636 18.386 56.3946 21.8769 59.9365 25.5869C63.4719 29.2901 67.2089 33.2034 70.7461 38.04C77.8338 47.7316 84.0913 61.0933 86.4971 83.9473L86.5 83.9736V84Z" fill="white" stroke="black"/>
<ellipse cx="37.6962" cy="11.5981" rx="6" ry="3" transform="rotate(30 37.6962 11.5981)" fill="#F9E1C2"/>
<path d="M5.66895 46.2324C15.2934 97.8922 28.3503 126.081 62.2686 163.448C56.9432 168.615 50.9428 171.5 44.5 171.5C20.7518 171.5 1.5 132.325 1.5 84C1.5 70.2005 2.98936 57.4328 5.66895 46.2324Z" fill="#FFFBF0"/>
</svg>
